<svg width="14" height="14" viewBox="0 0 14 14" fill="none" xmlns="http://www.w3.org/2000/svg">
<path d="M8.38574 5.81641V6.55469C8.38574 6.875 8.35156 7.15137 8.2832 7.38379C8.21484 7.61426 8.11621 7.80371 7.9873 7.95215C7.86035 8.09863 7.70898 8.20703 7.5332 8.27734C7.35742 8.34766 7.16211 8.38281 6.94727 8.38281C6.77539 8.38281 6.61523 8.36133 6.4668 8.31836C6.31836 8.27344 6.18457 8.2041 6.06543 8.11035C5.94824 8.0166 5.84668 7.89844 5.76074 7.75586C5.67676 7.61133 5.6123 7.43945 5.56738 7.24023C5.52246 7.04102 5.5 6.8125 5.5 6.55469V5.81641C5.5 5.49609 5.53418 5.22168 5.60254 4.99316C5.67285 4.7627 5.77148 4.57422 5.89844 4.42773C6.02734 4.28125 6.17969 4.17383 6.35547 4.10547C6.53125 4.03516 6.72656 4 6.94141 4C7.11328 4 7.27246 4.02246 7.41895 4.06738C7.56738 4.11035 7.70117 4.17773 7.82031 4.26953C7.93945 4.36133 8.04102 4.47949 8.125 4.62402C8.20898 4.7666 8.27344 4.9375 8.31836 5.13672C8.36328 5.33398 8.38574 5.56055 8.38574 5.81641ZM7.53906 6.66602V5.70215C7.53906 5.54785 7.53027 5.41309 7.5127 5.29785C7.49707 5.18262 7.47266 5.08496 7.43945 5.00488C7.40625 4.92285 7.36523 4.85645 7.31641 4.80566C7.26758 4.75488 7.21191 4.71777 7.14941 4.69434C7.08691 4.6709 7.01758 4.65918 6.94141 4.65918C6.8457 4.65918 6.76074 4.67773 6.68652 4.71484C6.61426 4.75195 6.55273 4.81152 6.50195 4.89355C6.45117 4.97363 6.41211 5.08105 6.38477 5.21582C6.35938 5.34863 6.34668 5.51074 6.34668 5.70215V6.66602C6.34668 6.82031 6.35449 6.95605 6.37012 7.07324C6.3877 7.19043 6.41309 7.29102 6.44629 7.375C6.48145 7.45703 6.52246 7.52441 6.56934 7.57715C6.61816 7.62793 6.67383 7.66504 6.73633 7.68848C6.80078 7.71191 6.87109 7.72363 6.94727 7.72363C7.04102 7.72363 7.12402 7.70508 7.19629 7.66797C7.27051 7.62891 7.33301 7.56836 7.38379 7.48633C7.43652 7.40234 7.47559 7.29297 7.50098 7.1582C7.52637 7.02344 7.53906 6.85938 7.53906 6.66602Z" fill="#606367"/>
<path d="M3 2V11H12" stroke="#606367" stroke-width="1.2" stroke-linecap="round"/>
</svg>
