<svg width="14" height="14" viewBox="0 0 14 14" fill="none" xmlns="http://www.w3.org/2000/svg">
<path d="M2.91667 3.5C2.91667 3.34529 2.97812 3.19692 3.08752 3.08752C3.19692 2.97812 3.34529 2.91667 3.5 2.91667H4.66667C4.82138 2.91667 4.96975 2.85521 5.07915 2.74581C5.18854 2.63642 5.25 2.48804 5.25 2.33333C5.25 2.17862 5.18854 2.03025 5.07915 1.92085C4.96975 1.81146 4.82138 1.75 4.66667 1.75H3.5C3.03587 1.75 2.59075 1.93437 2.26256 2.26256C1.93437 2.59075 1.75 3.03587 1.75 3.5V4.66667C1.75 4.82138 1.81146 4.96975 1.92085 5.07915C2.03025 5.18854 2.17862 5.25 2.33333 5.25C2.48804 5.25 2.63642 5.18854 2.74581 5.07915C2.85521 4.96975 2.91667 4.82138 2.91667 4.66667V3.5ZM2.91667 10.5C2.91667 10.6547 2.97812 10.8031 3.08752 10.9125C3.19692 11.0219 3.34529 11.0833 3.5 11.0833H4.66667C4.82138 11.0833 4.96975 11.1448 5.07915 11.2542C5.18854 11.3636 5.25 11.512 5.25 11.6667C5.25 11.8214 5.18854 11.9697 5.07915 12.0791C4.96975 12.1885 4.82138 12.25 4.66667 12.25H3.5C3.03587 12.25 2.59075 12.0656 2.26256 11.7374C1.93437 11.4092 1.75 10.9641 1.75 10.5V9.33333C1.75 9.17862 1.81146 9.03025 1.92085 8.92085C2.03025 8.81146 2.17862 8.75 2.33333 8.75C2.48804 8.75 2.63642 8.81146 2.74581 8.92085C2.85521 9.03025 2.91667 9.17862 2.91667 9.33333V10.5ZM10.5 2.91667C10.6547 2.91667 10.8031 2.97812 10.9125 3.08752C11.0219 3.19692 11.0833 3.34529 11.0833 3.5V4.66667C11.0833 4.82138 11.1448 4.96975 11.2542 5.07915C11.3636 5.18854 11.512 5.25 11.6667 5.25C11.8214 5.25 11.9697 5.18854 12.0791 5.07915C12.1885 4.96975 12.25 4.82138 12.25 4.66667V3.5C12.25 3.03587 12.0656 2.59075 11.7374 2.26256C11.4092 1.93437 10.9641 1.75 10.5 1.75H9.33333C9.17862 1.75 9.03025 1.81146 8.92085 1.92085C8.81146 2.03025 8.75 2.17862 8.75 2.33333C8.75 2.48804 8.81146 2.63642 8.92085 2.74581C9.03025 2.85521 9.17862 2.91667 9.33333 2.91667H10.5ZM11.0833 10.5C11.0833 10.6547 11.0219 10.8031 10.9125 10.9125C10.8031 11.0219 10.6547 11.0833 10.5 11.0833H9.33333C9.17862 11.0833 9.03025 11.1448 8.92085 11.2542C8.81146 11.3636 8.75 11.512 8.75 11.6667C8.75 11.8214 8.81146 11.9697 8.92085 12.0791C9.03025 12.1885 9.17862 12.25 9.33333 12.25H10.5C10.9641 12.25 11.4092 12.0656 11.7374 11.7374C12.0656 11.4092 12.25 10.9641 12.25 10.5V9.33333C12.25 9.17862 12.1885 9.03025 12.0791 8.92085C11.9697 8.81146 11.8214 8.75 11.6667 8.75C11.512 8.75 11.3636 8.81146 11.2542 8.92085C11.1448 9.03025 11.0833 9.17862 11.0833 9.33333V10.5Z" fill="#606367"/>
</svg>
