<svg width="14" height="14" viewBox="0 0 14 14" fill="none" xmlns="http://www.w3.org/2000/svg">
<g clip-path="url(#clip0_201_120)">
<path d="M7.3874 6.14164C7.36987 6.04482 7.31673 5.95807 7.23843 5.89847C7.16014 5.83888 7.06237 5.81076 6.96437 5.81965C6.86638 5.82854 6.77527 5.8738 6.70898 5.94651C6.64268 6.01922 6.60602 6.11412 6.6062 6.21251V9.75784L6.6125 9.82871C6.63003 9.92553 6.68318 10.0123 6.76147 10.0719C6.83977 10.1315 6.93754 10.1596 7.03553 10.1507C7.13352 10.1418 7.22463 10.0966 7.29093 10.0238C7.35722 9.95113 7.39388 9.85623 7.3937 9.75784V6.21251L7.3874 6.14164ZM7.62916 4.44064C7.62916 4.28399 7.56694 4.13377 7.45617 4.023C7.34541 3.91224 7.19518 3.85001 7.03854 3.85001C6.88189 3.85001 6.73167 3.91224 6.6209 4.023C6.51014 4.13377 6.44791 4.28399 6.44791 4.44064C6.44791 4.59728 6.51014 4.74751 6.6209 4.85827C6.73167 4.96904 6.88189 5.03126 7.03854 5.03126C7.19518 5.03126 7.34541 4.96904 7.45617 4.85827C7.56694 4.74751 7.62916 4.59728 7.62916 4.44064ZM13.3 7.00001C13.3 5.32915 12.6362 3.72672 11.4547 2.54524C10.2732 1.36376 8.67081 0.700012 6.99995 0.700012C5.32909 0.700012 3.72666 1.36376 2.54518 2.54524C1.3637 3.72672 0.699951 5.32915 0.699951 7.00001C0.699951 8.67088 1.3637 10.2733 2.54518 11.4548C3.72666 12.6363 5.32909 13.3 6.99995 13.3C8.67081 13.3 10.2732 12.6363 11.4547 11.4548C12.6362 10.2733 13.3 8.67088 13.3 7.00001ZM1.48745 7.00001C1.48745 6.2761 1.63004 5.55928 1.90707 4.89047C2.18409 4.22166 2.59014 3.61397 3.10202 3.10209C3.61391 2.5902 4.2216 2.18416 4.89041 1.90713C5.55922 1.6301 6.27604 1.48751 6.99995 1.48751C7.72386 1.48751 8.44069 1.6301 9.10949 1.90713C9.7783 2.18416 10.386 2.5902 10.8979 3.10209C11.4098 3.61397 11.8158 4.22166 12.0928 4.89047C12.3699 5.55928 12.5125 6.2761 12.5125 7.00001C12.5125 8.46202 11.9317 9.86414 10.8979 10.8979C9.86408 11.9317 8.46196 12.5125 6.99995 12.5125C5.53795 12.5125 4.13582 11.9317 3.10202 10.8979C2.06823 9.86414 1.48745 8.46202 1.48745 7.00001Z" fill="#1C1D20"/>
</g>
<defs>
<clipPath id="clip0_201_120">
<rect width="14" height="14" fill="white"/>
</clipPath>
</defs>
</svg>
