<svg width="14" height="14" viewBox="0 0 14 14" fill="none" xmlns="http://www.w3.org/2000/svg">
<g clip-path="url(#clip0_201_154)">
<path d="M3.91176 7C3.80256 7 3.69782 7.03688 3.6206 7.10251C3.54338 7.16815 3.5 7.25717 3.5 7.35V10.15C3.5 10.2428 3.54338 10.3318 3.6206 10.3975C3.69782 10.4631 3.80256 10.5 3.91176 10.5C4.02097 10.5 4.12571 10.4631 4.20293 10.3975C4.28015 10.3318 4.32353 10.2428 4.32353 10.15V7.35C4.32353 7.25717 4.28015 7.16815 4.20293 7.10251C4.12571 7.03688 4.02097 7 3.91176 7ZM5.97059 3.5C5.86138 3.5 5.75665 3.53687 5.67943 3.60251C5.60221 3.66815 5.55882 3.75717 5.55882 3.85V10.15C5.55882 10.2428 5.60221 10.3318 5.67943 10.3975C5.75665 10.4631 5.86138 10.5 5.97059 10.5C6.0798 10.5 6.18453 10.4631 6.26175 10.3975C6.33897 10.3318 6.38235 10.2428 6.38235 10.15V3.85C6.38235 3.75717 6.33897 3.66815 6.26175 3.60251C6.18453 3.53687 6.0798 3.5 5.97059 3.5ZM10.0882 8.4C9.97903 8.4 9.87429 8.43687 9.79707 8.50251C9.71985 8.56815 9.67647 8.65717 9.67647 8.75V10.15C9.67647 10.2428 9.71985 10.3318 9.79707 10.3975C9.87429 10.4631 9.97903 10.5 10.0882 10.5C10.1974 10.5 10.3022 10.4631 10.3794 10.3975C10.4566 10.3318 10.5 10.2428 10.5 10.15V8.75C10.5 8.65717 10.4566 8.56815 10.3794 8.50251C10.3022 8.43687 10.1974 8.4 10.0882 8.4ZM8.02941 5.6C7.92021 5.6 7.81547 5.63687 7.73825 5.70251C7.66103 5.76815 7.61765 5.85717 7.61765 5.95V10.15C7.61765 10.2428 7.66103 10.3318 7.73825 10.3975C7.81547 10.4631 7.92021 10.5 8.02941 10.5C8.13862 10.5 8.24335 10.4631 8.32057 10.3975C8.39779 10.3318 8.44118 10.2428 8.44118 10.15V5.95C8.44118 5.85717 8.39779 5.76815 8.32057 5.70251C8.24335 5.63687 8.13862 5.6 8.02941 5.6Z" fill="#1C1D20"/>
<circle cx="7" cy="7" r="6.5" stroke="#1C1D20"/>
</g>
<defs>
<clipPath id="clip0_201_154">
<rect width="14" height="14" fill="white"/>
</clipPath>
</defs>
</svg>
