<svg width="12" height="14" viewBox="0 0 12 14" fill="none" xmlns="http://www.w3.org/2000/svg">
<path d="M9.33339 0.599976C9.72229 0.599937 10.105 0.69705 10.4469 0.882496C10.7887 1.06794 11.0788 1.33584 11.2908 1.66187C11.5029 1.9879 11.6301 2.36173 11.6609 2.74941C11.6918 3.13709 11.6253 3.52633 11.4675 3.88179C11.3098 4.23725 11.0657 4.54767 10.7575 4.78485C10.4493 5.02204 10.0867 5.17847 9.70269 5.23995C9.31868 5.30143 8.92539 5.26601 8.55854 5.1369C8.1917 5.00779 7.86291 4.78908 7.60205 4.50064L4.56339 6.23664C4.70571 6.69087 4.70571 7.17775 4.56339 7.63198L7.60139 9.36931C7.98765 8.94249 8.51799 8.67343 9.09054 8.61379C9.6631 8.55415 10.2375 8.70814 10.7034 9.04619C11.1694 9.38424 11.494 9.88251 11.615 10.4453C11.7359 11.0081 11.6447 11.5957 11.3588 12.0954C11.0729 12.595 10.6125 12.9714 10.066 13.1523C9.51952 13.3332 8.92547 13.3058 8.39794 13.0754C7.87041 12.845 7.44661 12.4278 7.20792 11.904C6.96922 11.3801 6.93247 10.7866 7.10472 10.2373L4.06672 8.49931C3.7503 8.84918 3.33532 9.09499 2.87644 9.20436C2.41756 9.31373 1.93631 9.28153 1.49609 9.11199C1.05588 8.94245 0.677349 8.64354 0.41037 8.25462C0.143391 7.86571 0.000488281 7.40504 0.000488281 6.93331C0.000488281 6.46158 0.143391 6.00091 0.41037 5.61199C0.677349 5.22308 1.05588 4.92417 1.49609 4.75463C1.93631 4.58509 2.41756 4.55289 2.87644 4.66226C3.33532 4.77163 3.7503 5.01744 4.06672 5.36731L7.10472 3.63131C6.99542 3.28173 6.96991 2.91134 7.03024 2.55007C7.09058 2.18881 7.23506 1.84681 7.45202 1.55171C7.66897 1.25662 7.95232 1.0167 8.27915 0.851371C8.60598 0.686037 8.96712 0.599918 9.33339 0.599976ZM9.33339 9.59998C8.97941 9.59998 8.63993 9.74059 8.38963 9.99089C8.13933 10.2412 7.99872 10.5807 7.99872 10.9346C7.99872 11.2886 8.13933 11.6281 8.38963 11.8784C8.63993 12.1287 8.97941 12.2693 9.33339 12.2693C9.68736 12.2693 10.0268 12.1287 10.2771 11.8784C10.5274 11.6281 10.6681 11.2886 10.6681 10.9346C10.6681 10.5807 10.5274 10.2412 10.2771 9.99089C10.0268 9.74059 9.68736 9.59998 9.33339 9.59998ZM2.33472 5.59998C1.98074 5.59998 1.64127 5.74059 1.39097 5.99089C1.14067 6.24119 1.00005 6.58067 1.00005 6.93464C1.00005 7.28862 1.14067 7.6281 1.39097 7.87839C1.64127 8.12869 1.98074 8.26931 2.33472 8.26931C2.68869 8.26931 3.02817 8.12869 3.27847 7.87839C3.52877 7.6281 3.66938 7.28862 3.66938 6.93464C3.66938 6.58067 3.52877 6.24119 3.27847 5.99089C3.02817 5.74059 2.68869 5.59998 2.33472 5.59998ZM9.33339 1.59998C8.97941 1.59998 8.63993 1.74059 8.38963 1.99089C8.13933 2.24119 7.99872 2.58067 7.99872 2.93464C7.99872 3.28862 8.13933 3.6281 8.38963 3.87839C8.63993 4.12869 8.97941 4.26931 9.33339 4.26931C9.68736 4.26931 10.0268 4.12869 10.2771 3.87839C10.5274 3.6281 10.6681 3.28862 10.6681 2.93464C10.6681 2.58067 10.5274 2.24119 10.2771 1.99089C10.0268 1.74059 9.68736 1.59998 9.33339 1.59998Z" fill="#1C1D20"/>
</svg>
