<svg width="10" height="10" viewBox="0 0 10 10" fill="none" xmlns="http://www.w3.org/2000/svg">
<path d="M5 6.06464L1.27376 9.79087C1.13435 9.93029 0.956907 10 0.741445 10C0.525982 10 0.348542 9.93029 0.209125 9.79087C0.0697082 9.65146 0 9.47402 0 9.25856C0 9.04309 0.0697082 8.86565 0.209125 8.72624L3.93536 5L0.209125 1.27376C0.0697082 1.13435 0 0.956907 0 0.741445C0 0.525982 0.0697082 0.348542 0.209125 0.209125C0.348542 0.0697082 0.525982 0 0.741445 0C0.956907 0 1.13435 0.0697082 1.27376 0.209125L5 3.93536L8.72624 0.209125C8.86565 0.0697082 9.04309 0 9.25856 0C9.47402 0 9.65146 0.0697082 9.79087 0.209125C9.93029 0.348542 10 0.525982 10 0.741445C10 0.956907 9.93029 1.13435 9.79087 1.27376L6.06464 5L9.79087 8.72624C9.93029 8.86565 10 9.04309 10 9.25856C10 9.47402 9.93029 9.65146 9.79087 9.79087C9.65146 9.93029 9.47402 10 9.25856 10C9.04309 10 8.86565 9.93029 8.72624 9.79087L5 6.06464Z" fill="#606367"/>
</svg>
