<svg width="6" height="10" viewBox="0 0 6 10" fill="none" xmlns="http://www.w3.org/2000/svg">
<path d="M1.66662 9.66667C1.51085 9.66697 1.35989 9.61272 1.23995 9.51334C1.17245 9.45737 1.11665 9.38863 1.07574 9.31107C1.03484 9.23351 1.00965 9.14863 1.00159 9.06132C0.993544 8.974 1.0028 8.88595 1.02883 8.80221C1.05486 8.71848 1.09715 8.6407 1.15329 8.57334L4.13995 5L1.25995 1.42C1.20458 1.35181 1.16322 1.27335 1.13827 1.18912C1.11331 1.10489 1.10525 1.01657 1.11454 0.929213C1.12384 0.84186 1.1503 0.757206 1.19242 0.680115C1.23453 0.603024 1.29147 0.535016 1.35995 0.480001C1.42893 0.41931 1.50971 0.373532 1.59722 0.345539C1.68472 0.317546 1.77707 0.307944 1.86847 0.317334C1.95986 0.326724 2.04833 0.354903 2.12832 0.400105C2.20831 0.445306 2.27809 0.506553 2.33329 0.580001L5.55329 4.58C5.65134 4.69929 5.70494 4.84892 5.70494 5.00333C5.70494 5.15775 5.65134 5.30738 5.55329 5.42667L2.21995 9.42667C2.15307 9.50735 2.06812 9.57112 1.97198 9.61282C1.87584 9.65452 1.77122 9.67297 1.66662 9.66667Z" fill="#1A73E8"/>
</svg>
