<svg width="14" height="14" viewBox="0 0 14 14" fill="none" xmlns="http://www.w3.org/2000/svg">
<g clip-path="url(#clip0_201_142)">
<path fill-rule="evenodd" clip-rule="evenodd" d="M6.99994 0.700013C7.31583 0.700013 7.62722 0.723412 7.93051 0.768411L8.3877 2.15348C8.78819 2.26777 9.16888 2.43067 9.52167 2.63587L10.8356 2.00228C11.3009 2.35957 11.7149 2.78076 12.0641 3.25235L11.4071 4.55462C11.606 4.91101 11.7626 5.2944 11.8697 5.69759L13.2467 6.17728C13.3226 6.75957 13.3174 7.34956 13.2314 7.93044L11.8463 8.38762C11.7328 8.78403 11.5708 9.1649 11.3639 9.5216L11.9975 10.8356C11.6397 11.301 11.219 11.7144 10.7474 12.064L9.44518 11.4071C9.08493 11.6082 8.70097 11.7636 8.3022 11.8696L7.82252 13.2466C7.24023 13.3225 6.65024 13.3173 6.06936 13.2313L5.61217 11.8462C5.21577 11.7327 4.8349 11.5707 4.4782 11.3639L3.16423 11.9974C2.69881 11.6397 2.28537 11.2189 1.93576 10.7474L2.59274 9.4451C2.39206 9.08462 2.23668 8.70072 2.13015 8.30213L0.753188 7.82154C0.677404 7.23955 0.682553 6.64986 0.768488 6.06928L2.15355 5.61209C2.26785 5.2116 2.43075 4.83091 2.63594 4.47812L2.00236 3.16415C2.36013 2.69874 2.78085 2.28529 3.25243 1.93568L4.5547 2.59267C4.91495 2.39149 5.29891 2.2361 5.69767 2.13008L6.17826 0.753111C6.45071 0.717665 6.72518 0.699928 6.99994 0.700013Z" stroke="#1C1D20" stroke-width="0.933" stroke-linecap="round" stroke-linejoin="round"/>
<path d="M6.99998 9.69992C8.49112 9.69992 9.69992 8.49112 9.69992 6.99998C9.69992 5.50885 8.49112 4.30005 6.99998 4.30005C5.50885 4.30005 4.30005 5.50885 4.30005 6.99998C4.30005 8.49112 5.50885 9.69992 6.99998 9.69992Z" stroke="#1C1D20" stroke-linecap="round" stroke-linejoin="round"/>
</g>
<defs>
<clipPath id="clip0_201_142">
<rect width="14" height="14" fill="white"/>
</clipPath>
</defs>
</svg>
