<svg width="14" height="14" viewBox="0 0 14 14" fill="none" xmlns="http://www.w3.org/2000/svg">
<path d="M12.655 1.42841C12.4396 1.20188 12.181 1.02076 11.8945 0.895696C11.608 0.770634 11.2993 0.704164 10.9867 0.700201C10.6741 0.696237 10.3639 0.754862 10.0743 0.87262C9.78473 0.990379 9.52164 1.16489 9.30054 1.38588L1.91666 8.76922C1.6584 9.02739 1.47916 9.35388 1.39998 9.71035L0.709244 12.8212C0.694939 12.8859 0.697179 12.9531 0.715757 13.0167C0.734335 13.0802 0.768651 13.1381 0.815528 13.1849C0.862406 13.2317 0.920331 13.2659 0.983942 13.2844C1.04755 13.3029 1.1148 13.305 1.17945 13.2906L4.27162 12.603C4.63978 12.5211 4.97694 12.3359 5.24354 12.0691L12.614 4.69913C13.046 4.26695 13.2921 3.6831 13.2998 3.0721C13.3074 2.46109 13.076 1.87127 12.655 1.42841ZM9.85738 1.94347C10.151 1.66145 10.5434 1.50576 10.9505 1.50981C11.3576 1.51385 11.7468 1.67731 12.0348 1.96511C12.3227 2.2529 12.4863 2.64209 12.4905 3.04914C12.4947 3.45619 12.3391 3.84866 12.0572 4.14232L11.5287 4.67077L9.32889 2.47192L9.85738 1.94347ZM8.77205 3.02872L10.9719 5.22836L4.68669 11.5131C4.52588 11.6737 4.32261 11.7852 4.10071 11.8344L1.61185 12.3872L2.16948 9.88125C2.21587 9.67082 2.32166 9.47813 2.47429 9.32602L8.77205 3.02872Z" fill="#606367"/>
</svg>
