<svg width="14" height="14" viewBox="0 0 14 14" fill="none" xmlns="http://www.w3.org/2000/svg">
<path d="M4.1875 6.375C3.58333 6.375 3.06771 6.16146 2.64063 5.73438C2.21354 5.30729 2 4.79167 2 4.1875C2 3.58333 2.21354 3.06771 2.64063 2.64063C3.06771 2.21354 3.58333 2 4.1875 2C4.79167 2 5.30729 2.21354 5.73438 2.64063C6.16146 3.06771 6.375 3.58333 6.375 4.1875C6.375 4.79167 6.16146 5.30729 5.73438 5.73438C5.30729 6.16146 4.79167 6.375 4.1875 6.375ZM4.1875 5.125C4.44792 5.125 4.66917 5.03375 4.85125 4.85125C5.03375 4.66917 5.125 4.44792 5.125 4.1875C5.125 3.92708 5.03375 3.70583 4.85125 3.52375C4.66917 3.34125 4.44792 3.25 4.1875 3.25C3.92708 3.25 3.70583 3.34125 3.52375 3.52375C3.34125 3.70583 3.25 3.92708 3.25 4.1875C3.25 4.44792 3.34125 4.66917 3.52375 4.85125C3.70583 5.03375 3.92708 5.125 4.1875 5.125ZM9.8125 12C9.20833 12 8.69271 11.7865 8.26562 11.3594C7.83854 10.9323 7.625 10.4167 7.625 9.8125C7.625 9.20833 7.83854 8.69271 8.26562 8.26562C8.69271 7.83854 9.20833 7.625 9.8125 7.625C10.4167 7.625 10.9323 7.83854 11.3594 8.26562C11.7865 8.69271 12 9.20833 12 9.8125C12 10.4167 11.7865 10.9323 11.3594 11.3594C10.9323 11.7865 10.4167 12 9.8125 12ZM9.8125 10.75C10.0729 10.75 10.2942 10.6588 10.4763 10.4763C10.6588 10.2942 10.75 10.0729 10.75 9.8125C10.75 9.55208 10.6588 9.33083 10.4763 9.14875C10.2942 8.96625 10.0729 8.875 9.8125 8.875C9.55208 8.875 9.33083 8.96625 9.14875 9.14875C8.96625 9.33083 8.875 9.55208 8.875 9.8125C8.875 10.0729 8.96625 10.2942 9.14875 10.4763C9.33083 10.6588 9.55208 10.75 9.8125 10.75ZM2.4375 11.5625C2.32292 11.4479 2.26563 11.3021 2.26563 11.125C2.26563 10.9479 2.32292 10.8021 2.4375 10.6875L10.6875 2.4375C10.8021 2.32292 10.9479 2.26563 11.125 2.26563C11.3021 2.26563 11.4479 2.32292 11.5625 2.4375C11.6771 2.55208 11.7344 2.69792 11.7344 2.875C11.7344 3.05208 11.6771 3.19792 11.5625 3.3125L3.3125 11.5625C3.19792 11.6771 3.05208 11.7344 2.875 11.7344C2.69792 11.7344 2.55208 11.6771 2.4375 11.5625Z" fill="#606367"/>
</svg>
