<svg width="14" height="14" viewBox="0 0 14 14" fill="none" xmlns="http://www.w3.org/2000/svg">
<path d="M2 11.7667C2 12.17 2.32143 12.5 2.71429 12.5H11.2857C11.6786 12.5 12 12.17 12 11.7667C12 11.3633 11.6786 11.0333 11.2857 11.0333H2.71429C2.32143 11.0333 2 11.3633 2 11.7667ZM5.21429 7.95333H8.78571L9.25714 9.12667C9.36429 9.39067 9.61428 9.56667 9.89286 9.56667C10.3857 9.56667 10.7143 9.046 10.5214 8.584L7.75 2.006C7.62143 1.698 7.32857 1.5 7 1.5C6.67143 1.5 6.37857 1.698 6.25 2.006L3.47857 8.584C3.28571 9.046 3.62143 9.56667 4.11429 9.56667C4.39286 9.56667 4.64286 9.39067 4.75 9.12667L5.21429 7.95333ZM7 2.952L8.33571 6.63333H5.66429L7 2.952Z" fill="#606367"/>
</svg>
