<svg width="14" height="14" viewBox="0 0 14 14" fill="none" xmlns="http://www.w3.org/2000/svg">
<g id="icon/view-6columns">
<path id="Rectangle 10" d="M0.5 2C0.5 1.72386 0.723858 1.5 1 1.5H3C3.27614 1.5 3.5 1.72386 3.5 2V12C3.5 12.2761 3.27614 12.5 3 12.5H1C0.723858 12.5 0.5 12.2761 0.5 12V2Z" fill="#606367"/>
<g id="+5">
<path d="M6.26555 9.01734V4.92486H7.122V9.01734H6.26555ZM5 7.48844V6.45376H8.38755V7.48844H5Z" fill="#606367"/>
<path d="M11.1698 10C10.8317 10 10.5303 9.92486 10.2655 9.77457C10.0024 9.62428 9.79344 9.41715 9.63874 9.15318C9.48404 8.88921 9.40349 8.58671 9.39711 8.24566H10.4019C10.4131 8.47495 10.4928 8.66089 10.6411 8.80347C10.7895 8.94605 10.9657 9.01734 11.1698 9.01734C11.3325 9.01734 11.4761 8.97399 11.6005 8.88728C11.7265 8.79865 11.8245 8.6763 11.8947 8.52023C11.9665 8.36224 12.0024 8.18112 12.0024 7.97688C12.0024 7.76879 11.9657 7.58574 11.8923 7.42775C11.8206 7.26975 11.7209 7.14644 11.5933 7.0578C11.4657 6.96917 11.3198 6.92389 11.1555 6.92197C11.0119 6.92197 10.8724 6.95761 10.7368 7.0289C10.6029 7.10019 10.4984 7.1975 10.4234 7.32081L9.50238 7.12139L9.73443 4H12.7296V5.02312H10.5885L10.4617 6.50578H10.4904C10.5765 6.35934 10.7065 6.23796 10.8804 6.14162C11.0542 6.04528 11.2488 5.99711 11.4641 5.99711C11.7591 5.99711 12.0223 6.08092 12.2536 6.24855C12.4848 6.41619 12.6674 6.64644 12.8014 6.93931C12.9354 7.23025 13.0016 7.56551 13 7.94509C13.0016 8.34393 12.925 8.69846 12.7703 9.00867C12.6172 9.31696 12.4027 9.55973 12.1268 9.73699C11.8524 9.91233 11.5335 10 11.1698 10Z" fill="#606367"/>
</g>
</g>
</svg>
