<svg width="14" height="14" viewBox="0 0 14 14" fill="none" xmlns="http://www.w3.org/2000/svg">
<g id="icon/view-3columns">
<path id="Rectangle 10" d="M0.5 2C0.5 1.72386 0.723858 1.5 1 1.5H3C3.27614 1.5 3.5 1.72386 3.5 2V12C3.5 12.2761 3.27614 12.5 3 12.5H1C0.723858 12.5 0.5 12.2761 0.5 12V2Z" fill="#606367"/>
<g id="+2">
<path d="M6.3089 9.09827V5.00578H7.1947V9.09827H6.3089ZM5 7.56936V6.53468H8.5036V7.56936H5Z" fill="#606367"/>
<path d="M9.38754 10V9.09827L11.1913 7.1474C11.3447 6.97399 11.4734 6.81792 11.5773 6.67919C11.6829 6.54046 11.7629 6.40462 11.8173 6.27168C11.8717 6.1368 11.8989 5.99133 11.8989 5.83526C11.8989 5.66185 11.8651 5.51252 11.7975 5.38728C11.7299 5.26012 11.6375 5.16281 11.5204 5.09538C11.4033 5.02601 11.2705 4.99133 11.122 4.99133C10.967 4.99133 10.8317 5.02794 10.7162 5.10116C10.6008 5.17437 10.5117 5.27938 10.449 5.41619C10.3863 5.55299 10.355 5.7158 10.355 5.90462H9.33805C9.33805 5.51734 9.4131 5.18112 9.56321 4.89595C9.71332 4.61079 9.92363 4.39017 10.1942 4.2341C10.4647 4.07803 10.7764 4 11.1294 4C11.4923 4 11.8082 4.07514 12.0771 4.22543C12.3476 4.3738 12.5579 4.57996 12.708 4.84393C12.8581 5.1079 12.9332 5.4104 12.9332 5.75145C12.9332 5.97495 12.8953 6.19557 12.8194 6.41329C12.7451 6.63102 12.6124 6.87283 12.421 7.13873C12.2297 7.4027 11.96 7.71965 11.6119 8.0896L10.8721 8.93642V8.97688H13V10H9.38754Z" fill="#606367"/>
</g>
</g>
</svg>
