<svg width="14" height="14" viewBox="0 0 14 14" fill="none" xmlns="http://www.w3.org/2000/svg">
<g id="icon/view-5columns">
<path id="Rectangle 10" d="M0.5 2C0.5 1.72386 0.723858 1.5 1 1.5H3C3.27614 1.5 3.5 1.72386 3.5 2V12C3.5 12.2761 3.27614 12.5 3 12.5H1C0.723858 12.5 0.5 12.2761 0.5 12V2Z" fill="#606367"/>
<g id="+4">
<path d="M6.22631 9.08594V4.9375H7.05622V9.08594H6.22631ZM5 7.53613V6.4873H8.28253V7.53613H5Z" fill="#606367"/>
<path d="M9.1727 8.94531V7.94629L11.1547 4H11.8363V5.38281H11.4329L10.1834 7.88184V7.92871H13V8.94531H9.1727ZM11.4515 10V8.64062L11.47 8.19824V4H12.4112V10H11.4515Z" fill="#606367"/>
</g>
</g>
</svg>
