<svg width="30" height="30" viewBox="0 0 30 30" fill="none" xmlns="http://www.w3.org/2000/svg">
<path d="M15 29C22.7322 29 29 22.7322 29 15C29 7.2678 22.7322 1 15 1C7.2678 1 1 7.2678 1 15C1 22.7322 7.2678 29 15 29Z" fill="#E07D86" stroke="#606367" stroke-linecap="round" stroke-linejoin="round"/>
<path d="M10.1 10.8C9.91434 10.8 9.73629 10.7263 9.60502 10.595C9.47374 10.4637 9.39999 10.2857 9.39999 10.1C9.39999 9.91437 9.47374 9.73632 9.60502 9.60505C9.73629 9.47377 9.91434 9.40002 10.1 9.40002C10.2856 9.40002 10.4637 9.47377 10.595 9.60505C10.7262 9.73632 10.8 9.91437 10.8 10.1C10.8 10.2857 10.7262 10.4637 10.595 10.595C10.4637 10.7263 10.2856 10.8 10.1 10.8ZM19.9 10.8C19.7143 10.8 19.5363 10.7263 19.405 10.595C19.2737 10.4637 19.2 10.2857 19.2 10.1C19.2 9.91437 19.2737 9.73632 19.405 9.60505C19.5363 9.47377 19.7143 9.40002 19.9 9.40002C20.0856 9.40002 20.2637 9.47377 20.395 9.60505C20.5262 9.73632 20.6 9.91437 20.6 10.1C20.6 10.2857 20.5262 10.4637 20.395 10.595C20.2637 10.7263 20.0856 10.8 19.9 10.8Z" fill="#606367" stroke="#606367" stroke-linecap="round" stroke-linejoin="round"/>
<path d="M8.7 19.9C8.7 19.9 10.8 17.1 15 17.1C19.2 17.1 21.3 19.9 21.3 19.9" stroke="#606367" stroke-linecap="round" stroke-linejoin="round"/>
</svg>
