<svg width="14" height="14" viewBox="0 0 14 14" fill="none" xmlns="http://www.w3.org/2000/svg">
<path d="M11.9744 9.16668L8.96875 11.3333L5.635 8.92668L2.7475 10.7133C2.30781 10.9867 1.75 10.6667 1.75 10.1467C1.75 9.91334 1.86812 9.70001 2.065 9.57334L5.6875 7.33334L8.96875 9.70001L11.2131 8.08001C11.6462 7.76668 12.25 8.08668 12.25 8.62668C12.25 8.84001 12.145 9.04001 11.9744 9.16668Z" fill="#606367"/>
<path d="M4.87773 3.14445L4.6371 3.27023C4.53267 3.32244 4.41178 3.33104 4.30101 3.29411C4.19025 3.25719 4.09869 3.17778 4.04648 3.07335C3.99426 2.96892 3.98567 2.84803 4.02259 2.73727C4.04087 2.68242 4.06978 2.63172 4.10766 2.58804C4.14553 2.54437 4.19164 2.50858 4.24335 2.48273L5.11835 2.04523C5.1854 2.01212 5.25981 1.99674 5.33448 2.00057C5.40916 2.0044 5.48161 2.02731 5.54491 2.0671C5.60873 2.10585 5.66142 2.16047 5.69784 2.22565C5.73426 2.29082 5.75317 2.36432 5.75273 2.43898V5.50148C5.75273 5.61751 5.70663 5.72879 5.62459 5.81084C5.54254 5.89289 5.43126 5.93898 5.31523 5.93898C5.19919 5.93898 5.08791 5.89289 5.00587 5.81084C4.92382 5.72879 4.87773 5.61751 4.87773 5.50148V3.14445Z" fill="#606367"/>
<path d="M12.1984 3.88239C12.3348 3.68466 12.4073 3.44992 12.4063 3.20973C12.4078 2.93113 12.3126 2.66063 12.1369 2.4444C11.9612 2.22818 11.7159 2.07963 11.4428 2.02412C11.1698 1.96861 10.886 2.00958 10.6398 2.14003C10.3936 2.27049 10.2004 2.48234 10.093 2.73942C10.0473 2.84675 10.0461 2.96784 10.0897 3.07603C10.1333 3.18423 10.2181 3.27069 10.3254 3.31637C10.4327 3.36206 10.5538 3.36324 10.662 3.31965C10.7702 3.27607 10.8567 3.19128 10.9023 3.08395C10.9258 3.02354 10.9672 2.97175 11.021 2.93558C11.0748 2.8994 11.1383 2.88057 11.2031 2.88161C11.2901 2.88161 11.3736 2.91618 11.4351 2.97771C11.4967 3.03925 11.5313 3.12271 11.5313 3.20973C11.5326 3.27166 11.5155 3.33259 11.482 3.38473L10.0875 5.24411C10.0388 5.30911 10.0091 5.3864 10.0018 5.46732C9.99447 5.54824 10.0099 5.62959 10.0462 5.70226C10.0825 5.77494 10.1384 5.83605 10.2075 5.87877C10.2766 5.92148 10.3563 5.94411 10.4375 5.94411H11.9688C12.0848 5.94411 12.1961 5.89802 12.2781 5.81597C12.3602 5.73392 12.4063 5.62264 12.4063 5.50661C12.4063 5.39058 12.3602 5.2793 12.2781 5.19725C12.1961 5.1152 12.0848 5.06911 11.9688 5.06911H11.3125L12.1875 3.8988L12.1984 3.88239Z" fill="#606367"/>
</svg>
