<svg width="12" height="8" viewBox="0 0 12 8" fill="none" xmlns="http://www.w3.org/2000/svg">
<path d="M4.0912 8C3.98756 8 3.8904 7.98497 3.79972 7.9549C3.70904 7.92531 3.62484 7.87472 3.54711 7.80313L0.204814 4.72483C0.0623131 4.59359 -0.00582823 4.42344 0.000389993 4.21441C0.0071264 4.00585 0.0817448 3.83594 0.224246 3.7047C0.366746 3.57345 0.548111 3.50783 0.76834 3.50783C0.988569 3.50783 1.16993 3.57345 1.31243 3.7047L4.0912 6.26398L10.6786 0.196868C10.8211 0.0656227 11.0059 0 11.2328 0C11.4593 0 11.6437 0.0656227 11.7862 0.196868C11.9288 0.328113 12 0.498016 12 0.706577C12 0.915615 11.9288 1.08576 11.7862 1.217L4.6353 7.80313C4.55757 7.87472 4.47336 7.92531 4.38268 7.9549C4.292 7.98497 4.19484 8 4.0912 8Z" fill="#1A73E8"/>
</svg>
