<svg width="16" height="16" viewBox="0 0 16 16" fill="none" xmlns="http://www.w3.org/2000/svg">
<path d="M12.5 12.8712C12.5 13.0038 12.4473 13.131 12.3536 13.2248C12.2598 13.3185 12.1326 13.3712 12 13.3712H2.5C2.23478 13.3712 1.98043 13.2658 1.79289 13.0783C1.60536 12.8908 1.5 12.6364 1.5 12.3712V4.8712C1.5 4.73859 1.55268 4.61141 1.64645 4.51764C1.74021 4.42388 1.86739 4.3712 2 4.3712C2.13261 4.3712 2.25979 4.42388 2.35355 4.51764C2.44732 4.61141 2.5 4.73859 2.5 4.8712V12.3712H12C12.1326 12.3712 12.2598 12.4239 12.3536 12.5176C12.4473 12.6114 12.5 12.7386 12.5 12.8712ZM14.3875 6.18995C14.394 6.18297 14.3983 6.1743 14.4 6.16495L14.4125 6.1462L14.4312 6.12745L14.4438 6.1087C14.4438 6.0962 14.45 6.08995 14.45 6.0837L14.4625 6.06495C14.4625 6.05245 14.4688 6.0462 14.4688 6.03995L14.4812 6.01495C14.4811 6.00621 14.4833 5.99759 14.4875 5.98995V5.9712C14.4926 5.9616 14.4947 5.95075 14.4937 5.93995C14.4935 5.93656 14.4939 5.93315 14.4949 5.92993C14.496 5.9267 14.4977 5.92373 14.5 5.9212V5.8212C14.4977 5.81866 14.496 5.81569 14.4949 5.81247C14.4939 5.80924 14.4935 5.80583 14.4937 5.80245C14.4947 5.79165 14.4926 5.78079 14.4875 5.7712V5.75245C14.4833 5.7448 14.4811 5.73618 14.4812 5.72745L14.4688 5.70245C14.4688 5.6962 14.4625 5.68995 14.4625 5.67745L14.45 5.6587C14.45 5.65245 14.4438 5.6462 14.4438 5.6337L14.4312 5.61495L14.4125 5.5962L14.4 5.57745C14.3983 5.56809 14.394 5.55942 14.3875 5.55245C14.3812 5.5462 14.3688 5.53995 14.3625 5.52745C14.3589 5.52424 14.3566 5.51976 14.3562 5.51495L11.3562 2.51495C11.2591 2.43522 11.1358 2.39447 11.0102 2.40063C10.8847 2.4068 10.766 2.45943 10.6771 2.5483C10.5882 2.63717 10.5356 2.75591 10.5294 2.88144C10.5233 3.00697 10.564 3.1303 10.6438 3.22745L12.7937 5.3712H10.5C9.05868 5.37009 7.65795 5.84853 6.51847 6.73114C5.379 7.61375 4.56554 8.85037 4.20625 10.2462C4.17386 10.3738 4.1931 10.509 4.2598 10.6225C4.3265 10.736 4.43527 10.8186 4.5625 10.8524L4.6875 10.8712C4.79866 10.8709 4.90662 10.834 4.99473 10.7662C5.08283 10.6984 5.14618 10.6036 5.175 10.4962C5.47884 9.31511 6.16704 8.26871 7.13115 7.52186C8.09526 6.77502 9.28046 6.3702 10.5 6.3712H12.7937L10.6438 8.51495C10.5499 8.60974 10.4972 8.73777 10.4972 8.8712C10.4972 9.00462 10.5499 9.13265 10.6438 9.22745C10.7393 9.31986 10.8671 9.37151 11 9.37151C11.1329 9.37151 11.2607 9.31986 11.3562 9.22745L14.3562 6.22745C14.3566 6.22263 14.3589 6.21815 14.3625 6.21495C14.3688 6.20245 14.3812 6.1962 14.3875 6.18995Z" fill="#1C1D20"/>
</svg>
