<svg width="12" height="12" viewBox="0 0 12 12" fill="none" xmlns="http://www.w3.org/2000/svg">
<path d="M4.8335 0.604157C5.63272 0.604057 6.41561 0.830426 7.09146 1.25703C7.7673 1.68364 8.30843 2.29302 8.65213 3.01456C8.99584 3.7361 9.12806 4.54027 9.03347 5.33387C8.93887 6.12748 8.62134 6.87803 8.11767 7.49857L10.976 10.3569C11.0545 10.4349 11.1005 10.5397 11.1048 10.6502C11.1091 10.7608 11.0714 10.8688 10.9993 10.9527C10.9271 11.0365 10.8258 11.0899 10.7159 11.1021C10.6059 11.1143 10.4955 11.0844 10.4067 11.0184L10.3577 10.9758L7.49875 8.11749C6.9731 8.54398 6.35275 8.83806 5.68985 8.97502C5.02694 9.11198 4.34085 9.08782 3.68922 8.90456C3.03759 8.72131 2.43947 8.38432 1.94512 7.92191C1.45077 7.4595 1.07464 6.88519 0.848335 6.24723C0.622029 5.60928 0.552162 4.92632 0.644605 4.25576C0.737048 3.5852 0.9891 2.94662 1.37958 2.39369C1.77006 1.84077 2.28755 1.38965 2.88858 1.07825C3.4896 0.766845 4.15659 0.60426 4.8335 0.604157ZM4.8335 1.47916C4.39302 1.47916 3.95686 1.56591 3.54991 1.73448C3.14297 1.90304 2.77321 2.15011 2.46175 2.46157C2.15028 2.77303 1.90322 3.14279 1.73465 3.54974C1.56609 3.95669 1.47933 4.39285 1.47933 4.83332C1.47933 5.2738 1.56609 5.70996 1.73465 6.11691C1.90322 6.52385 2.15028 6.89361 2.46175 7.20508C2.77321 7.51654 3.14297 7.76361 3.54991 7.93217C3.95686 8.10073 4.39302 8.18749 4.8335 8.18749C5.72308 8.18749 6.57622 7.83411 7.20525 7.20508C7.83428 6.57605 8.18767 5.7229 8.18767 4.83332C8.18767 3.94374 7.83428 3.0906 7.20525 2.46157C6.57622 1.83254 5.72308 1.47916 4.8335 1.47916Z" fill="#606367"/>
</svg>
