<svg width="14" height="14" viewBox="0 0 14 14" fill="none" xmlns="http://www.w3.org/2000/svg">
<path d="M11.5938 9.00001H2.40625C2.04531 9.00001 1.75 8.70001 1.75 8.33334C1.75 7.96668 2.04531 7.66668 2.40625 7.66668H11.5938C11.9547 7.66668 12.25 7.96668 12.25 8.33334C12.25 8.70001 11.9547 9.00001 11.5938 9.00001ZM11.5938 10.3333H2.40625C2.04531 10.3333 1.75 10.6333 1.75 11C1.75 11.3667 2.04531 11.6667 2.40625 11.6667H11.5938C11.9547 11.6667 12.25 11.3667 12.25 11C12.25 10.6333 11.9547 10.3333 11.5938 10.3333ZM8.96875 6.33334L11.9744 4.16668C12.145 4.04001 12.25 3.84001 12.25 3.62668C12.25 3.08668 11.6462 2.76668 11.2131 3.08001L8.96875 4.70001L5.6875 2.33334L2.065 4.57334C1.86812 4.70001 1.75 4.91334 1.75 5.14668C1.75 5.66668 2.30781 5.98668 2.7475 5.71334L5.635 3.92668L8.96875 6.33334Z" fill="#606367"/>
</svg>
