<svg width="14" height="14" viewBox="0 0 14 14" fill="none" xmlns="http://www.w3.org/2000/svg">
<path d="M1.75 3.64583C1.75 3.14303 1.94974 2.66081 2.30528 2.30528C2.66081 1.94974 3.14303 1.75 3.64583 1.75H10.3542C10.857 1.75 11.3392 1.94974 11.6947 2.30528C12.0503 2.66081 12.25 3.14303 12.25 3.64583V10.3542C12.25 10.857 12.0503 11.3392 11.6947 11.6947C11.3392 12.0503 10.857 12.25 10.3542 12.25H3.64583C3.14303 12.25 2.66081 12.0503 2.30528 11.6947C1.94974 11.3392 1.75 10.857 1.75 10.3542V3.64583ZM3.64583 2.625C3.37509 2.625 3.11544 2.73255 2.924 2.924C2.73255 3.11544 2.625 3.37509 2.625 3.64583V6.5625H6.5625V2.625H3.64583ZM6.5625 7.4375H2.625V10.3542C2.625 10.9177 3.08233 11.375 3.64583 11.375H6.5625V7.4375ZM7.4375 7.4375V11.375H10.3542C10.6249 11.375 10.8846 11.2674 11.076 11.076C11.2674 10.8846 11.375 10.6249 11.375 10.3542V7.4375H7.4375ZM11.375 6.5625V3.64583C11.375 3.37509 11.2674 3.11544 11.076 2.924C10.8846 2.73255 10.6249 2.625 10.3542 2.625H7.4375V6.5625H11.375Z" fill="#606367"/>
</svg>
