<svg width="14" height="14" viewBox="0 0 14 14" fill="none" xmlns="http://www.w3.org/2000/svg">
<path d="M12.4688 7C12.4688 7.17405 12.3996 7.34097 12.2765 7.46404C12.1535 7.58711 11.9865 7.65625 11.8125 7.65625H2.1875C2.01345 7.65625 1.84653 7.58711 1.72346 7.46404C1.60039 7.34097 1.53125 7.17405 1.53125 7C1.53125 6.82595 1.60039 6.65903 1.72346 6.53596C1.84653 6.41289 2.01345 6.34375 2.1875 6.34375H11.8125C11.9865 6.34375 12.1535 6.41289 12.2765 6.53596C12.3996 6.65903 12.4688 6.82595 12.4688 7ZM2.1875 3.15625H11.8125C11.9865 3.15625 12.1535 3.08711 12.2765 2.96404C12.3996 2.84097 12.4688 2.67405 12.4688 2.5C12.4688 2.32595 12.3996 2.15903 12.2765 2.03596C12.1535 1.91289 11.9865 1.84375 11.8125 1.84375H2.1875C2.01345 1.84375 1.84653 1.91289 1.72346 2.03596C1.60039 2.15903 1.53125 2.32595 1.53125 2.5C1.53125 2.67405 1.60039 2.84097 1.72346 2.96404C1.84653 3.08711 2.01345 3.15625 2.1875 3.15625ZM11.8125 10.8438H2.1875C2.01345 10.8438 1.84653 10.9129 1.72346 11.036C1.60039 11.159 1.53125 11.326 1.53125 11.5C1.53125 11.674 1.60039 11.841 1.72346 11.964C1.84653 12.0871 2.01345 12.1562 2.1875 12.1562H11.8125C11.9865 12.1562 12.1535 12.0871 12.2765 11.964C12.3996 11.841 12.4688 11.674 12.4688 11.5C12.4688 11.326 12.3996 11.159 12.2765 11.036C12.1535 10.9129 11.9865 10.8438 11.8125 10.8438Z" fill="#606367"/>
</svg>
