<svg width="14" height="14" viewBox="0 0 14 14" fill="none" xmlns="http://www.w3.org/2000/svg">
<g id="icon/view-4columns">
<path id="Rectangle 10" d="M0.5 2C0.5 1.72386 0.723858 1.5 1 1.5H3C3.27614 1.5 3.5 1.72386 3.5 2V12C3.5 12.2761 3.27614 12.5 3 12.5H1C0.723858 12.5 0.5 12.2761 0.5 12V2Z" fill="#606367"/>
<g id="+3">
<path d="M6.25868 9.03042V4.9924H7.11049V9.03042H6.25868ZM5 7.52186V6.50095H8.36916V7.52186H5Z" fill="#606367"/>
<path d="M11.125 10C10.7697 10 10.4533 9.92681 10.1757 9.78042C9.89968 9.63213 9.68157 9.42871 9.52136 9.17015C9.36274 8.9097 9.28105 8.60932 9.27629 8.26901H10.3137C10.32 8.4116 10.3589 8.53707 10.4303 8.64544C10.5032 8.7519 10.6 8.8346 10.7206 8.89354C10.8411 8.95247 10.9767 8.98194 11.1274 8.98194C11.2845 8.98194 11.4233 8.94867 11.5438 8.88213C11.6644 8.81559 11.7587 8.72338 11.827 8.60551C11.8952 8.48764 11.9293 8.35171 11.9293 8.19772C11.9293 8.04182 11.8928 7.90399 11.8198 7.78422C11.7484 7.66255 11.6453 7.56749 11.5105 7.49905C11.3773 7.43061 11.2186 7.39639 11.0346 7.39639H10.5802V6.48954H11.0346C11.1901 6.48954 11.3273 6.45722 11.4463 6.39259C11.5668 6.32795 11.6604 6.23859 11.727 6.12453C11.7936 6.00856 11.827 5.87357 11.827 5.71958C11.827 5.57319 11.7976 5.44487 11.7389 5.3346C11.6818 5.22243 11.6009 5.13498 11.4962 5.07224C11.3931 5.00951 11.2726 4.97814 11.1346 4.97814C10.995 4.97814 10.8673 5.00856 10.7515 5.06939C10.6357 5.12833 10.5429 5.21293 10.4731 5.32319C10.4033 5.43346 10.366 5.56274 10.3613 5.71103H9.37384C9.3786 5.37452 9.45871 5.07795 9.61416 4.82129C9.76961 4.56464 9.97899 4.36407 10.2423 4.21958C10.5072 4.07319 10.8062 4 11.1393 4C11.4756 4 11.7699 4.07319 12.0221 4.21958C12.2743 4.36597 12.4702 4.56369 12.6098 4.81274C12.7509 5.05989 12.8207 5.33745 12.8191 5.64544C12.8207 5.97243 12.7359 6.24525 12.5646 6.46388C12.3948 6.68251 12.1735 6.82129 11.9007 6.88023V6.92586C12.2592 6.98099 12.532 7.13023 12.7192 7.37357C12.908 7.61502 13.0016 7.9173 13 8.28042C13.0016 8.61312 12.9215 8.90875 12.7597 9.1673C12.5995 9.42586 12.3782 9.62928 12.0958 9.77757C11.8135 9.92586 11.4899 10 11.125 10Z" fill="#606367"/>
</g>
</g>
</svg>
