<?xml version="1.0" standalone="no"?>
<!DOCTYPE svg PUBLIC "-//W3C//DTD SVG 20010904//EN"
 "http://www.w3.org/TR/2001/REC-SVG-20010904/DTD/svg10.dtd">
<svg version="1.0" xmlns="http://www.w3.org/2000/svg"
 width="16.000000pt" height="16.000000pt" viewBox="0 0 16.000000 16.000000"
 preserveAspectRatio="xMidYMid meet">
<metadata>
Created by potrace 1.11, written by Peter Selinger 2001-2013
</metadata>
<g transform="translate(0.000000,16.000000) scale(0.002286,-0.002286)"
fill="#000000" stroke="none">
<path d="M3387 5394 c-1 -1 -49 -4 -107 -8 -100 -5 -146 -10 -235 -22 -22 -3
-58 -8 -80 -11 -22 -3 -103 -18 -180 -35 -77 -16 -149 -31 -160 -33 -46 -10
-288 -86 -390 -123 -259 -93 -591 -254 -803 -388 -29 -19 -57 -34 -62 -34 -6
0 -10 -4 -10 -10 0 -5 -4 -10 -10 -10 -27 0 -441 -304 -615 -451 -153 -130
-330 -301 -471 -455 -84 -91 -125 -139 -226 -266 l-38 -46 57 -74 c61 -79 163
-196 258 -297 533 -564 1204 -1022 1870 -1276 152 -58 461 -150 567 -169 15
-2 63 -11 105 -20 82 -16 113 -21 203 -31 30 -4 66 -9 80 -11 143 -22 559 -22
724 1 17 2 54 7 81 10 80 10 117 15 170 26 28 5 61 11 75 14 14 3 36 7 50 10
14 3 34 7 45 9 152 30 483 137 680 221 672 286 1326 766 1852 1360 34 39 89
104 122 147 l60 76 -28 39 c-144 198 -467 531 -716 738 -38 33 -72 62 -75 65
-3 3 -70 56 -150 117 -258 196 -446 316 -754 482 -400 215 -976 394 -1406 436
-141 13 -474 27 -483 19z m283 -578 c25 -4 59 -10 75 -12 180 -28 415 -136
575 -263 101 -80 290 -288 290 -319 0 -6 3 -12 8 -14 39 -17 164 -326 186
-463 28 -170 28 -280 2 -480 -13 -100 -81 -290 -143 -404 -88 -158 -260 -349
-403 -447 -160 -110 -382 -202 -530 -220 -19 -2 -48 -7 -64 -10 -74 -16 -241
-12 -399 10 -85 12 -219 55 -347 113 -179 80 -403 277 -523 459 -194 295 -259
613 -201 979 10 63 10 90 -1 91 -5 0 -28 4 -50 8 -104 18 -153 26 -191 32
l-41 5 -11 -43 c-36 -144 -44 -427 -17 -568 3 -14 7 -42 10 -63 7 -58 53 -221
86 -304 81 -204 190 -374 341 -530 33 -35 56 -63 52 -63 -21 0 -271 110 -400
176 -432 221 -822 506 -1209 886 l-130 127 135 133 c74 73 167 160 205 193 38
33 87 76 110 96 22 19 90 74 150 121 344 266 713 481 1072 623 l82 33 68 -76
c37 -42 84 -93 103 -114 l35 -38 60 51 c166 139 429 262 615 285 19 3 58 8 85
12 60 9 252 8 315 -2z m1012 -146 c109 -33 418 -188 628 -316 213 -129 480
-321 621 -446 14 -13 55 -48 90 -78 35 -30 127 -117 204 -193 l140 -138 -135
-132 c-75 -73 -166 -159 -205 -192 -38 -33 -80 -71 -94 -84 -47 -43 -315 -246
-411 -312 -245 -168 -607 -363 -805 -434 -27 -10 -54 -22 -60 -27 -5 -4 -16
-8 -24 -8 -9 0 13 29 50 68 225 231 380 541 429 857 6 39 13 81 15 95 6 30 7
297 1 325 -2 11 -7 47 -10 80 -11 86 -50 238 -90 342 -81 212 -182 372 -341
542 -38 41 -61 71 -50 67 11 -5 32 -12 47 -16z"/>
<path d="M3420 4378 c-184 -19 -364 -93 -484 -201 l-48 -42 24 -26 c26 -29
132 -147 199 -224 65 -73 108 -122 161 -179 26 -28 42 -53 37 -54 -5 -2 -49 3
-97 12 -48 8 -103 18 -122 21 -19 3 -57 10 -85 15 -27 6 -68 12 -90 15 -22 3
-87 14 -145 24 -58 10 -108 16 -112 14 -6 -3 -13 -30 -33 -133 -16 -77 0 -289
26 -357 6 -16 11 -30 11 -33 7 -59 89 -209 162 -295 70 -82 99 -107 191 -169
155 -102 299 -146 480 -146 108 0 134 3 238 30 273 71 508 291 602 565 43 124
57 294 36 425 -74 455 -498 784 -951 738z"/>
</g>
</svg>
