<?xml version="1.0" encoding="UTF-8" standalone="no"?>
<svg
   xmlns:dc="http://purl.org/dc/elements/1.1/"
   xmlns:cc="http://creativecommons.org/ns#"
   xmlns:rdf="http://www.w3.org/1999/02/22-rdf-syntax-ns#"
   xmlns:svg="http://www.w3.org/2000/svg"
   xmlns="http://www.w3.org/2000/svg"
   viewBox="0 0 278.21332 137.03999"
   height="137.03999"
   width="278.21332"
   xml:space="preserve"
   version="1.1"
   id="svg2"><metadata
     id="metadata8"><rdf:RDF><cc:Work
         rdf:about=""><dc:format>image/svg+xml</dc:format><dc:type
           rdf:resource="http://purl.org/dc/dcmitype/StillImage" /></cc:Work></rdf:RDF></metadata><defs
     id="defs6"><clipPath
       id="clipPath18"
       clipPathUnits="userSpaceOnUse"><path
         id="path20"
         d="M 0,1027.83 0,0 l 2086.62,0 0,1027.83 -2086.62,0 z" /></clipPath></defs><g
     transform="matrix(1.3333333,0,0,-1.3333333,0,137.04)"
     id="g10"><g
       transform="scale(0.1)"
       id="g12"><g
         id="g14"><g
           clip-path="url(#clipPath18)"
           id="g16"><path
             id="path22"
             style="fill:#231f20;fill-opacity:1;fill-rule:nonzero;stroke:none"
             d="m 0,881.629 20,0 0,142.801 -20,0 0,-142.801 z" /><path
             id="path24"
             style="fill:#231f20;fill-opacity:1;fill-rule:nonzero;stroke:none"
             d="m 73.9219,985.027 17.2812,0 0,-15.207 0.3125,-0.39 c 5.4492,11.398 14.8754,18.398 25.7654,18.398 17.918,0 29.274,-12 29.274,-35.195 l 0,-71.004 -18.239,0 0,65 c -0.312,16.199 -5.433,23.191 -16.152,23.191 -12.164,0 -19.9999,-11.992 -19.9999,-27.187 l 0,-61.004 -18.2422,0 0,103.398" /><path
             id="path26"
             style="fill:#231f20;fill-opacity:1;fill-rule:nonzero;stroke:none"
             d="m 189.43,985.027 13.769,0 0,31.003 18.231,0 0,-31.003 16.492,0 0,-17.004 -16.492,0 0,-55.195 c 0,-9.394 0.648,-14.195 8.808,-14.195 2.559,0 5.114,0 7.684,0.801 l 0,-17.598 c -4,-0.395 -7.844,-1.215 -11.844,-1.215 -19.039,0 -22.566,9.199 -22.879,26.406 l 0,60.996 -13.769,0 0,17.004" /><path
             id="path28"
             style="fill:#231f20;fill-opacity:1;fill-rule:nonzero;stroke:none"
             d="m 339.84,942.438 c -0.641,14.394 -8.492,27.382 -20.801,27.382 -12.652,0 -21.285,-11.992 -21.758,-27.382 l 42.559,0 z m -42.559,-15 c 0,-16.211 7.028,-30.602 22.227,-30.602 10.57,0 16.961,5.801 20.164,17.195 l 17.285,0 c -3.996,-22.59 -19.367,-35.207 -37.449,-35.207 -25.918,0 -40.469,22.617 -40.469,54.406 0,29.403 15.352,54.598 40,54.598 26.078,0 42.078,-29.394 39.035,-60.39 l -60.793,0" /><path
             id="path30"
             style="fill:#231f20;fill-opacity:1;fill-rule:nonzero;stroke:none"
             d="m 404,985.027 17.117,0 0,-20 0.313,0 c 2.082,11.004 12.961,22.801 24.16,22.801 4.168,0 5.289,-0.39 6.883,-0.594 l 0,-22.004 c -2.555,0.391 -5.278,0.997 -7.844,0.997 -12.473,0 -22.402,-12.598 -22.402,-35.399 l 0,-49.199 -18.227,0 0,103.398" /><path
             id="path32"
             style="fill:#231f20;fill-opacity:1;fill-rule:nonzero;stroke:none"
             d="m 507.992,929.234 c 0,-22 12.969,-30.601 28.965,-30.601 17.59,0 24.16,10.801 24.16,21.597 0,10.997 -4.805,15.391 -9.453,17.598 -7.988,3.801 -18.398,6.406 -34.082,11.797 -19.512,6.602 -25.273,21.406 -25.273,36.203 0,28.602 21.113,42.002 41.769,42.002 23.836,0 43.836,-15.8 43.836,-45.596 l -20,0 c -0.957,18.386 -10.879,25.206 -24.648,25.206 -9.266,0 -20.957,-4.21 -20.957,-18.616 0,-10 5.449,-15.594 13.613,-18.386 1.75,-0.618 27.031,-8.809 32.949,-11.008 15.039,-5.606 22.246,-21.602 22.246,-36.407 0,-31.992 -22.734,-44.793 -45.449,-44.793 -26.082,0 -47.207,15.594 -47.676,51.004 l 20,0" /><path
             id="path34"
             style="fill:#231f20;fill-opacity:1;fill-rule:nonzero;stroke:none"
             d="m 618.871,985.027 20,0 21.594,-77.199 0.332,0 20.957,77.199 19.043,0 -32.168,-108.996 c -5.918,-18.593 -10.246,-35.41 -29.27,-35.41 -4.324,0 -8.484,0.41 -12.644,1.215 l 0,19.195 c 2.871,-0.593 5.75,-1.402 8.633,-1.402 8.484,0 10.574,5.601 12.8,14.402 l 2.071,7.996 -31.348,103" /><path
             id="path36"
             style="fill:#231f20;fill-opacity:1;fill-rule:nonzero;stroke:none"
             d="m 756.801,914.82 c 0.957,-13.191 8.945,-17.984 18.711,-17.984 6.875,0 18.867,1.797 18.398,13.602 -0.488,12 -13.75,13.386 -27.031,17.199 -13.457,3.59 -26.57,9.597 -26.57,30.593 0,22.598 19.519,29.598 34.558,29.598 16.973,0 32.324,-8.797 34.551,-31.797 l -19.031,0 c -1.594,10.801 -8.801,13.789 -16.797,13.789 -5.274,0 -15.051,-1.59 -15.051,-10.586 0,-11.211 13.457,-12.793 26.887,-16.601 13.289,-3.809 26.719,-9.805 26.719,-30.195 0,-24.61 -19.836,-33.614 -36.946,-33.614 -20.82,0 -36.328,11.614 -36.66,35.996 l 18.262,0" /><path
             id="path38"
             style="fill:#231f20;fill-opacity:1;fill-rule:nonzero;stroke:none"
             d="m 849.75,985.027 13.75,0 0,31.003 18.254,0 0,-31.003 16.469,0 0,-17.004 -16.469,0 0,-55.195 c 0,-9.394 0.633,-14.195 8.793,-14.195 2.558,0 5.117,0 7.676,0.801 l 0,-17.598 c -4.004,-0.395 -7.832,-1.215 -11.836,-1.215 -19.039,0 -22.555,9.199 -22.887,26.406 l 0,60.996 -13.75,0 0,17.004" /><path
             id="path40"
             style="fill:#231f20;fill-opacity:1;fill-rule:nonzero;stroke:none"
             d="m 1000.14,942.438 c -0.648,14.394 -8.48,27.382 -20.785,27.382 -12.636,0 -21.289,-11.992 -21.777,-27.382 l 42.562,0 z m -42.562,-15 c 0,-16.211 7.051,-30.602 22.246,-30.602 10.567,0 16.973,5.801 20.176,17.195 l 17.27,0 c -4.01,-22.59 -19.36,-35.207 -37.446,-35.207 -25.918,0 -40.469,22.617 -40.469,54.406 0,29.403 15.352,54.598 40,54.598 26.075,0 42.075,-29.394 39.025,-60.39 l -60.802,0" /><path
             id="path42"
             style="fill:#231f20;fill-opacity:1;fill-rule:nonzero;stroke:none"
             d="m 1064.3,985.027 17.28,0 0,-14.406 0.49,0 c 5.43,10.207 12.31,17.207 25.43,17.207 10.08,0 19.53,-5.39 23.2,-17.207 6.1,10.606 13.93,17.207 25.92,17.207 17.44,0 27.68,-9.598 27.68,-34.805 l 0,-71.394 -18.23,0 0,60.398 c 0,16.407 -0.82,27.793 -15.03,27.793 -12.33,0 -17.62,-10.195 -17.62,-27.586 l 0,-60.605 -18.22,0 0,66.394 c 0,14.211 -3.54,21.797 -14.57,21.797 -9.46,0 -18.09,-9.59 -18.09,-26.797 l 0,-61.394 -18.24,0 0,103.398" /><path
             id="path44"
             style="fill:#231f20;fill-opacity:1;fill-rule:nonzero;stroke:none"
             d="m 1249.26,914.82 c 0.95,-13.191 8.96,-17.984 18.73,-17.984 6.87,0 18.89,1.797 18.38,13.602 -0.45,12 -13.75,13.386 -27.03,17.199 -13.42,3.59 -26.55,9.597 -26.55,30.593 0,22.598 19.5,29.598 34.55,29.598 16.96,0 32.33,-8.797 34.57,-31.797 l -19.04,0 c -1.62,10.801 -8.79,13.789 -16.82,13.789 -5.25,0 -15.03,-1.59 -15.03,-10.586 0,-11.211 13.43,-12.793 26.89,-16.601 13.26,-3.809 26.72,-9.805 26.72,-30.195 0,-24.61 -19.84,-33.614 -36.95,-33.614 -20.8,0 -36.35,11.614 -36.66,35.996 l 18.24,0" /><path
             id="path46"
             style="fill:#29328a;fill-opacity:1;fill-rule:nonzero;stroke:none"
             d="m 135.355,715.043 -59.0034,0 0,-614.039 56.0034,0 c 115.008,0 104.008,180.019 104.008,306.016 0,125.015 16.996,308.023 -101.008,308.023 z m 4,-693.043 -139.007344,1 0,768.047 140.007344,0 C 303.363,792.051 313.363,570.031 313.363,407.02 313.363,243.016 303.363,22 139.355,22" /><path
             id="path48"
             style="fill:#29328a;fill-opacity:1;fill-rule:nonzero;stroke:none"
             d="m 469.641,583.477 0,-248.645 127.16,0 0,-62.375 -125.539,0 0,-186.2773 125.539,0 0,-63.1797 -188.715,0 0,249.457 -50.219,0 21.867,62.375 28.352,0 0,311.82 174.945,0 21.867,-63.175 -135.257,0" /><path
             id="path50"
             style="fill:none;stroke:#29328a;stroke-width:10;stroke-linecap:butt;stroke-linejoin:miter;stroke-miterlimit:4;stroke-dasharray:none;stroke-opacity:1"
             d="m 469.641,583.477 0,-248.645 127.16,0 0,-62.375 -125.539,0 0,-186.2773 125.539,0 0,-63.1797 -188.715,0 0,249.457 -50.219,0 21.867,62.375 28.352,0 0,311.82 174.945,0 21.867,-63.175 -135.257,0 z" /><path
             id="path52"
             style="fill:#29328a;fill-opacity:1;fill-rule:nonzero;stroke:none"
             d="m 753.129,583.477 0,-248.645 127.16,0 0,-62.375 -125.539,0 0,-186.2773 125.539,0 0,-63.1797 -188.711,0 0,249.457 -50.223,0 21.872,62.375 28.351,0 0,311.82 174.945,0 21.868,-63.175 -135.262,0" /><path
             id="path54"
             style="fill:none;stroke:#29328a;stroke-width:10;stroke-linecap:butt;stroke-linejoin:miter;stroke-miterlimit:4;stroke-dasharray:none;stroke-opacity:1"
             d="m 753.129,583.477 0,-248.645 127.16,0 0,-62.375 -125.539,0 0,-186.2773 125.539,0 0,-63.1797 -188.711,0 0,249.457 -50.223,0 21.872,62.375 28.351,0 0,311.82 174.945,0 21.868,-63.175 -135.262,0 z" /><path
             id="path56"
             style="fill:#29328a;fill-opacity:1;fill-rule:nonzero;stroke:none"
             d="m 1023.66,586.473 -14.58,0 0,-248.653 12.15,0 c 58.32,0 83.43,17.012 83.43,125.547 -0.81,97.188 -24.31,123.106 -81,123.106 z m 11.34,-309.395 -25.92,0 0,-251.078 -60.74,0 0,623.652 81,0 c 89.08,0 136.87,-36.453 137.68,-186.285 0,-160.371 -43.74,-186.289 -132.02,-186.289" /><path
             id="path58"
             style="fill:none;stroke:#29328a;stroke-width:10;stroke-linecap:butt;stroke-linejoin:miter;stroke-miterlimit:4;stroke-dasharray:none;stroke-opacity:1"
             d="m 1023.66,586.473 -14.58,0 0,-248.653 12.15,0 c 58.32,0 83.43,17.012 83.43,125.547 -0.81,97.188 -24.31,123.106 -81,123.106 z m 11.34,-309.395 -25.92,0 0,-251.078 -60.74,0 0,623.652 81,0 c 89.08,0 136.87,-36.453 137.68,-186.285 0,-160.371 -43.74,-186.289 -132.02,-186.289 z" /><path
             id="path60"
             style="fill:#29328a;fill-opacity:1;fill-rule:nonzero;stroke:none"
             d="m 1351.86,718.047 c -19.01,-7.004 -29.01,-13.004 -42,-27.004 -35.01,-36.008 -43,-82.008 -24,-128.008 l 122.01,-285.019 c 31.99,-74.004 15,-145.008 -40.02,-203.0082 -21.99,-25 -40,-37.0117 -71.99,-49.0078 l -66.02,-26 -27.98,72 65.99,26.0078 c 35,12.0002 54.01,31.0042 68.01,64.0042 14,32.996 16.99,59.004 1.99,92 l -123.01,281.019 c -35.99,83.004 -6.99,170.012 63.01,226.016 17.01,14 28.01,21.004 48.01,29 l 68.01,28.004 27.99,-72.008 -70,-27.996" /><path
             id="path62"
             style="fill:#29328a;fill-opacity:1;fill-rule:nonzero;stroke:none"
             d="m 1559.14,583.477 0,-248.645 127.15,0 0,-62.375 -125.55,0 0,-186.2773 125.55,0 0,-63.1797 -188.71,0 0,249.457 -50.22,0 21.88,62.375 28.34,0 0,311.82 174.94,0 21.87,-63.175 -135.25,0" /><path
             id="path64"
             style="fill:none;stroke:#29328a;stroke-width:10;stroke-linecap:butt;stroke-linejoin:miter;stroke-miterlimit:4;stroke-dasharray:none;stroke-opacity:1"
             d="m 1559.14,583.477 0,-248.645 127.15,0 0,-62.375 -125.55,0 0,-186.2773 125.55,0 0,-63.1797 -188.71,0 0,249.457 -50.22,0 21.88,62.375 28.34,0 0,311.82 174.94,0 21.87,-63.175 -135.25,0 z" /><path
             id="path66"
             style="fill:#29328a;fill-opacity:1;fill-rule:nonzero;stroke:none"
             d="m 1842.64,583.477 0,-248.645 127.15,0 0,-62.375 -125.55,0 0,-186.2773 125.55,0 0,-63.1797 -188.72,0 0,249.457 -50.21,0 21.87,62.375 28.34,0 0,311.82 174.95,0 21.87,-63.175 -135.25,0" /><path
             id="path68"
             style="fill:none;stroke:#29328a;stroke-width:10;stroke-linecap:butt;stroke-linejoin:miter;stroke-miterlimit:4;stroke-dasharray:none;stroke-opacity:1"
             d="m 1842.64,583.477 0,-248.645 127.15,0 0,-62.375 -125.55,0 0,-186.2773 125.55,0 0,-63.1797 -188.72,0 0,249.457 -50.21,0 21.87,62.375 28.34,0 0,311.82 174.95,0 21.87,-63.175 -135.25,0 z" /><path
             id="path70"
             style="fill:#231f20;fill-opacity:1;fill-rule:nonzero;stroke:none"
             d="m 1991.21,648.527 0,5.602 39.97,0 0,-5.602 -16.66,0 0,-44.379 -6.65,0 0,44.379 -16.66,0" /><path
             id="path72"
             style="fill:#231f20;fill-opacity:1;fill-rule:nonzero;stroke:none"
             d="m 2045.95,654.129 15.75,-42 15.82,42 9.1,0 0,-49.981 -6.3,0 0,41.582 -0.14,0 -15.61,-41.582 -5.67,0 -15.61,41.582 -0.14,0 0,-41.582 -6.3,0 0,49.981 9.1,0" /></g></g></g></g></svg>