<svg width="565px" height="210px" viewBox="0 0 565 210" xmlns="http://www.w3.org/2000/svg" xmlns:xlink="http://www.w3.org/1999/xlink">
  <defs/>
  <g>
    <path stroke="none" fill="#26328c" d="M394 6.55 Q384.25 10 374.45 15.9 354.8 27.7 354.5 40 354.25 49.85 361.5 67.3 364.7 75.1 377 100.35 387.35 121.65 391.25 133.2 396.95 150.2 394.5 160 390.6 175.4 367.15 189.25 355.45 196.15 344.5 200 L334.75 183 340.95 180.65 Q348.4 177.6 354.65 174 374.5 162.5 374.5 150 374.5 143.45 368.25 128.6 365.75 122.65 354.5 98.75 345.05 78.65 340.75 67.05 334.5 50.1 334.5 40 334.5 21.25 359.5 3.75 372 -5 384.5 -10 L394 6.55 M420 40 L480 40 480 60 440 60 440 120 480 120 480 140 440 140 440 180 480 180 480 200 420 200 420 140 407.95 140 405 140 407.95 134.1 415 120 420 120 420 40 M505 40 L565 40 565 60 525 60 525 120 565 120 565 140 525 140 525 180 565 180 565 200 505 200 505 140 492.95 140 490 140 492.95 134.1 500 120 505 120 505 40 M284.2 89.8 L284.5 120 Q296.55 119.75 300.6 113.5 304.5 107.45 304.5 90 304.5 72.45 300.6 66.4 296.5 60 284.5 60 284.1 73.1 284.2 89.8 M40 20 L20 20 20 180 40 180 Q51.55 180 57.6 164.2 62 152.7 62 140 L62 60 Q62 47.55 57.65 36.05 51.6 20 40 20 M0 0 L40 0 Q65.4 0 75.25 30 80.15 45 80 60 L80 140 79.55 149.4 Q78.5 160.6 75.5 170 65.8 200 40 200 L0 200 0 0 M165 40 L165 60 125 60 125 120 165 120 165 140 125 140 125 180 165 180 165 200 105 200 105 140 92.95 140 90 140 92.95 134.1 100 120 105 120 105 40 165 40 M284.5 40 Q307.15 40 315.75 50.6 324.5 61.4 324.5 90 324.5 118.9 316.15 129.4 307.7 140.1 284.5 140 284.85 162.15 284.5 200 L264.5 200 264.5 40 284.5 40 M250 40 L250 60 210 60 210 120 250 120 250 140 210 140 210 180 250 180 250 200 190 200 190 140 177.95 140 175 140 177.95 134.1 185 120 190 120 190 40 250 40"/>
  </g>
</svg>