<svg width="30" height="30" viewBox="0 0 30 30" fill="none" xmlns="http://www.w3.org/2000/svg">
<path d="M1 5V23C1 24.0609 1.42143 25.0783 2.17157 25.8284C2.92172 26.5786 3.93913 27 5 27H25C26.0609 27 27.0783 26.5786 27.8284 25.8284C28.5786 25.0783 29 24.0609 29 23V10.994C29.0003 9.98506 28.6191 9.01331 27.9329 8.27368C27.2466 7.53404 26.3061 7.0812 25.3 7.006L25 6.996L15 7L11 3H3C2.46957 3 1.96086 3.21071 1.58579 3.58579C1.21071 3.96086 1 4.46957 1 5Z" stroke="#606367" stroke-linecap="round" stroke-linejoin="round"/>
</svg>
