<svg width="30" height="30" viewBox="0 0 30 30" fill="none" xmlns="http://www.w3.org/2000/svg">
<path fill-rule="evenodd" clip-rule="evenodd" d="M21.7843 26.0915C25.3797 23.8876 27.821 19.9846 27.9906 15.5H15.8531L21.7843 26.0915ZM20.9122 26.5809C19.1386 27.4882 17.1291 28 15 28C7.8203 28 2 22.1797 2 15C2 7.98772 7.55201 2.27219 14.5 2.00944V15V15.1305L14.5637 15.2443L20.9122 26.5809ZM15.5 2.00944V14.5H27.9906C27.7341 7.7179 22.2821 2.26592 15.5 2.00944ZM15 29C22.5646 29 28.728 23.0004 28.9912 15.5H29V15V14.5H28.9912C28.728 6.99959 22.5646 1 15 1C7.26801 1 1 7.26801 1 15C1 22.732 7.26801 29 15 29Z" fill="#606367"/>
</svg>
