<svg width="30" height="30" viewBox="0 0 30 30" fill="none" xmlns="http://www.w3.org/2000/svg">
<path fill-rule="evenodd" clip-rule="evenodd" d="M15 1C22.5646 1 28.728 6.99959 28.9912 14.5H29V15V15.5H28.9912C28.7338 22.8345 22.8345 28.7338 15.5 28.9912V29H15H14.5V28.9912C6.99959 28.728 1 22.5646 1 15C1 7.26801 7.26801 1 15 1ZM15.5 27.9906C22.2821 27.7341 27.7341 22.2821 27.9906 15.5H21.2958C21.0538 18.5891 18.5891 21.0538 15.5 21.2958V27.9906ZM14.5 21.2958V27.9906C7.55201 27.7278 2 22.0123 2 15C2 11.8278 3.1362 8.92097 5.02383 6.66427L9.78976 11.4302C9.09267 12.4457 8.68474 13.6752 8.68474 15C8.68474 18.3195 11.2459 21.0409 14.5 21.2958ZM21.2958 14.5H27.9906C27.7278 7.55201 22.0123 2 15 2C11.3526 2 8.05606 3.50209 5.69519 5.92142L10.4227 10.649C11.5733 9.43901 13.1985 8.68474 15 8.68474C18.3195 8.68474 21.0409 11.2459 21.2958 14.5ZM9.68474 15C9.68474 17.9355 12.0645 20.3153 15 20.3153C17.9355 20.3153 20.3153 17.9355 20.3153 15C20.3153 12.0645 17.9355 9.68474 15 9.68474C12.0645 9.68474 9.68474 12.0645 9.68474 15Z" fill="#606367"/>
</svg>
