<svg width="30" height="25" viewBox="0 0 30 25" fill="none" xmlns="http://www.w3.org/2000/svg">
<path d="M4.26691 24C-3.47585 14.045 3.86469 1.375 15.1269 1.375C26.3891 1.375 32.7242 14.95 25.4841 24" stroke="#606367" stroke-linecap="round"/>
<path fill-rule="evenodd" clip-rule="evenodd" d="M22.021 8.96404C22.2138 8.76632 22.2098 8.44977 22.0121 8.25699C21.8144 8.06422 21.4978 8.06822 21.305 8.26594L17.3834 12.2882C17.3166 12.3566 17.2735 12.4393 17.2538 12.5262C16.5629 11.9668 15.6829 11.6317 14.7246 11.6317C12.5032 11.6317 10.7024 13.4325 10.7024 15.6539C10.7024 17.8753 12.5032 19.6761 14.7246 19.6761C16.946 19.6761 18.7468 17.8753 18.7468 15.6539C18.7468 14.6957 18.4118 13.8157 17.8524 13.1248C17.9433 13.1042 18.0295 13.058 18.0994 12.9863L22.021 8.96404ZM17.7468 15.6539C17.7468 17.323 16.3937 18.6761 14.7246 18.6761C13.0555 18.6761 11.7024 17.323 11.7024 15.6539C11.7024 13.9848 13.0555 12.6317 14.7246 12.6317C16.3937 12.6317 17.7468 13.9848 17.7468 15.6539Z" fill="#606367"/>
</svg>
