<?xml version="1.0" encoding="iso-8859-1"?>
<!-- Generator: Adobe Illustrator 19.0.0, SVG Export Plug-In . SVG Version: 6.00 Build 0)  -->
<svg version="1.1" id="Capa_1" xmlns="http://www.w3.org/2000/svg" xmlns:xlink="http://www.w3.org/1999/xlink" x="0px" y="0px"
	 viewBox="0 0 512.002 512.002" style="enable-background:new 0 0 512.002 512.002;" xml:space="preserve">
<path style="fill:#1E88E5;" d="M501.341,160.002v298.667c0.011,3.578-1.746,6.931-4.693,8.96l-64,42.667
	c-1.808,1.08-3.867,1.668-5.973,1.707V189.868l58.027-38.827c4.88-3.299,11.511-2.018,14.811,2.863
	C500.728,155.703,501.366,157.83,501.341,160.002L501.341,160.002z"/>
<path style="fill:#64B5F6;" d="M426.674,189.868v322.133c-2.106-0.038-4.165-0.627-5.973-1.707l-64-42.667
	c-2.948-2.029-4.704-5.382-4.693-8.96V160.002c-0.068-5.891,4.652-10.721,10.543-10.789c2.171-0.025,4.298,0.613,6.097,1.829
	L426.674,189.868z"/>
<path style="fill:#2196F3;" d="M496.584,151.127l-64-42.667c-3.584-2.391-8.256-2.391-11.84,0l-64,42.667
	c-4.901,3.268-6.225,9.891-2.957,14.792c0.781,1.171,1.786,2.176,2.957,2.957l64,42.667c3.584,2.391,8.256,2.391,11.84,0l64-42.667
	c4.901-3.268,6.225-9.891,2.957-14.792C498.76,152.913,497.755,151.908,496.584,151.127L496.584,151.127z"/>
<path style="fill:#1E88E5;" d="M330.674,53.335v405.333c0.011,3.578-1.746,6.931-4.693,8.96l-64,42.667
	c-1.808,1.08-3.867,1.668-5.973,1.707v-428.8l58.027-38.827c4.88-3.299,11.511-2.018,14.811,2.863
	C330.061,49.037,330.699,51.164,330.674,53.335z"/>
<path style="fill:#64B5F6;" d="M256.008,83.202v428.8c-2.106-0.038-4.165-0.627-5.973-1.707l-64-42.667
	c-2.948-2.029-4.704-5.382-4.693-8.96V53.335c-0.068-5.891,4.652-10.721,10.543-10.789c2.171-0.025,4.298,0.613,6.097,1.829
	L256.008,83.202z"/>
<path style="fill:#2196F3;" d="M325.917,44.46l-64-42.667c-3.584-2.391-8.256-2.391-11.84,0l-64,42.667
	c-4.901,3.268-6.225,9.891-2.957,14.792c0.781,1.171,1.786,2.176,2.957,2.957l64,42.667c3.584,2.391,8.256,2.391,11.84,0l64-42.667
	c4.901-3.268,6.225-9.891,2.957-14.792C328.093,46.246,327.088,45.241,325.917,44.46z"/>
<path style="fill:#1E88E5;" d="M160.008,245.335v213.333c0.011,3.578-1.746,6.931-4.693,8.96l-64,42.667
	c-1.808,1.08-3.867,1.668-5.973,1.707v-236.8l58.027-38.827c4.88-3.299,11.511-2.018,14.811,2.863
	C159.394,241.037,160.033,243.164,160.008,245.335z"/>
<path style="fill:#64B5F6;" d="M85.341,275.202v236.8c-2.106-0.038-4.165-0.627-5.973-1.707l-64-42.667
	c-2.948-2.029-4.704-5.382-4.693-8.96V245.335c-0.068-5.891,4.652-10.721,10.543-10.789c2.171-0.025,4.298,0.613,6.097,1.829
	L85.341,275.202z"/>
<path style="fill:#2196F3;" d="M155.25,236.46l-64-42.667c-3.584-2.391-8.256-2.391-11.84,0l-64,42.667
	c-4.901,3.268-6.225,9.891-2.957,14.792c0.781,1.171,1.786,2.176,2.957,2.957l64,42.667c3.584,2.391,8.256,2.391,11.84,0l64-42.667
	c4.901-3.268,6.225-9.891,2.957-14.792C157.426,238.246,156.421,237.241,155.25,236.46z"/>
<g>
</g>
<g>
</g>
<g>
</g>
<g>
</g>
<g>
</g>
<g>
</g>
<g>
</g>
<g>
</g>
<g>
</g>
<g>
</g>
<g>
</g>
<g>
</g>
<g>
</g>
<g>
</g>
<g>
</g>
</svg>
